<svg width="33" height="33" viewBox="0 0 33 33" fill="none" xmlns="http://www.w3.org/2000/svg">
<path d="M6.875 24.75H12.705C12.886 24.7511 13.0653 24.7164 13.2329 24.6479C13.4004 24.5795 13.5528 24.4787 13.6812 24.3513L23.1963 14.8225L27.1012 11C27.2301 10.8722 27.3324 10.7201 27.4022 10.5526C27.472 10.385 27.508 10.2053 27.508 10.0238C27.508 9.84224 27.472 9.66252 27.4022 9.49496C27.3324 9.32741 27.2301 9.17533 27.1012 9.04751L21.2712 3.14876C21.1434 3.01988 20.9914 2.91759 20.8238 2.84778C20.6562 2.77797 20.4765 2.74203 20.295 2.74203C20.1135 2.74203 19.9338 2.77797 19.7662 2.84778C19.5986 2.91759 19.4466 3.01988 19.3188 3.14876L15.4412 7.04001L5.89875 16.5688C5.77131 16.6972 5.67049 16.8496 5.60206 17.0171C5.53364 17.1847 5.49895 17.364 5.5 17.545V23.375C5.5 23.7397 5.64487 24.0894 5.90273 24.3473C6.16059 24.6051 6.51033 24.75 6.875 24.75ZM20.295 6.06376L24.1863 9.95501L22.2337 11.9075L18.3425 8.01626L20.295 6.06376ZM8.25 18.1088L16.4038 9.95501L20.295 13.8463L12.1412 22H8.25V18.1088ZM28.875 27.5H4.125C3.76033 27.5 3.41059 27.6449 3.15273 27.9027C2.89487 28.1606 2.75 28.5103 2.75 28.875C2.75 29.2397 2.89487 29.5894 3.15273 29.8473C3.41059 30.1051 3.76033 30.25 4.125 30.25H28.875C29.2397 30.25 29.5894 30.1051 29.8473 29.8473C30.1051 29.5894 30.25 29.2397 30.25 28.875C30.25 28.5103 30.1051 28.1606 29.8473 27.9027C29.5894 27.6449 29.2397 27.5 28.875 27.5Z" fill="black"/>
</svg>
