<svg width="33" height="33" viewBox="0 0 33 33" fill="none" xmlns="http://www.w3.org/2000/svg">
<path d="M13.75 24.75C14.1147 24.75 14.4644 24.6051 14.7223 24.3473C14.9801 24.0894 15.125 23.7397 15.125 23.375V15.125C15.125 14.7603 14.9801 14.4106 14.7223 14.1527C14.4644 13.8949 14.1147 13.75 13.75 13.75C13.3853 13.75 13.0356 13.8949 12.7777 14.1527C12.5199 14.4106 12.375 14.7603 12.375 15.125V23.375C12.375 23.7397 12.5199 24.0894 12.7777 24.3473C13.0356 24.6051 13.3853 24.75 13.75 24.75ZM27.5 8.25H22V6.875C22 5.78098 21.5654 4.73177 20.7918 3.95818C20.0182 3.1846 18.969 2.75 17.875 2.75H15.125C14.031 2.75 12.9818 3.1846 12.2082 3.95818C11.4346 4.73177 11 5.78098 11 6.875V8.25H5.5C5.13533 8.25 4.78559 8.39487 4.52773 8.65273C4.26987 8.91059 4.125 9.26033 4.125 9.625C4.125 9.98967 4.26987 10.3394 4.52773 10.5973C4.78559 10.8551 5.13533 11 5.5 11H6.875V26.125C6.875 27.219 7.3096 28.2682 8.08318 29.0418C8.85677 29.8154 9.90598 30.25 11 30.25H22C23.094 30.25 24.1432 29.8154 24.9168 29.0418C25.6904 28.2682 26.125 27.219 26.125 26.125V11H27.5C27.8647 11 28.2144 10.8551 28.4723 10.5973C28.7301 10.3394 28.875 9.98967 28.875 9.625C28.875 9.26033 28.7301 8.91059 28.4723 8.65273C28.2144 8.39487 27.8647 8.25 27.5 8.25ZM13.75 6.875C13.75 6.51033 13.8949 6.16059 14.1527 5.90273C14.4106 5.64487 14.7603 5.5 15.125 5.5H17.875C18.2397 5.5 18.5894 5.64487 18.8473 5.90273C19.1051 6.16059 19.25 6.51033 19.25 6.875V8.25H13.75V6.875ZM23.375 26.125C23.375 26.4897 23.2301 26.8394 22.9723 27.0973C22.7144 27.3551 22.3647 27.5 22 27.5H11C10.6353 27.5 10.2856 27.3551 10.0277 27.0973C9.76987 26.8394 9.625 26.4897 9.625 26.125V11H23.375V26.125ZM19.25 24.75C19.6147 24.75 19.9644 24.6051 20.2223 24.3473C20.4801 24.0894 20.625 23.7397 20.625 23.375V15.125C20.625 14.7603 20.4801 14.4106 20.2223 14.1527C19.9644 13.8949 19.6147 13.75 19.25 13.75C18.8853 13.75 18.5356 13.8949 18.2777 14.1527C18.0199 14.4106 17.875 14.7603 17.875 15.125V23.375C17.875 23.7397 18.0199 24.0894 18.2777 24.3473C18.5356 24.6051 18.8853 24.75 19.25 24.75Z" fill="black"/>
</svg>
